<svg xmlns="http://www.w3.org/2000/svg" viewBox="0 0 1536 1024" width="1536" height="1024">
  <defs>
    <linearGradient id="bg" x1="0" y1="0" x2="1" y2="1">
      <stop offset="0" stop-color="#f8fbff"/>
      <stop offset=".55" stop-color="#ffffff"/>
      <stop offset="1" stop-color="#eef6ff"/>
    </linearGradient>
    <linearGradient id="blue" x1="0" y1="0" x2="1" y2="1">
      <stop offset="0" stop-color="#2f78ff"/>
      <stop offset="1" stop-color="#064ee8"/>
    </linearGradient>
    <linearGradient id="purple" x1="0" y1="0" x2="1" y2="1">
      <stop offset="0" stop-color="#a855f7"/>
      <stop offset="1" stop-color="#7c3aed"/>
    </linearGradient>
    <linearGradient id="green" x1="0" y1="0" x2="1" y2="1">
      <stop offset="0" stop-color="#4ade80"/>
      <stop offset="1" stop-color="#16a34a"/>
    </linearGradient>
    <radialGradient id="sphere" cx=".35" cy=".25" r=".7">
      <stop offset="0" stop-color="#9dc2ff"/>
      <stop offset=".5" stop-color="#2f78ff"/>
      <stop offset="1" stop-color="#064ee8"/>
    </radialGradient>
    <radialGradient id="metal" cx=".32" cy=".25" r=".75">
      <stop offset="0" stop-color="#fff"/>
      <stop offset=".55" stop-color="#dfe7f1"/>
      <stop offset="1" stop-color="#9ca8b6"/>
    </radialGradient>
    <filter id="shadow" x="-30%" y="-30%" width="160%" height="170%">
      <feDropShadow dx="0" dy="24" stdDeviation="30" flood-color="#0f172a" flood-opacity=".15"/>
    </filter>
    <filter id="softShadow" x="-40%" y="-40%" width="180%" height="180%">
      <feDropShadow dx="0" dy="14" stdDeviation="18" flood-color="#1e40af" flood-opacity=".14"/>
    </filter>
    <pattern id="dots" width="18" height="18" patternUnits="userSpaceOnUse">
      <circle cx="3" cy="3" r="1.8" fill="#b8cdfd" opacity=".7"/>
    </pattern>
  </defs>

  <rect width="1536" height="1024" fill="url(#bg)"/>
  <path d="M0 560 C300 470 470 500 730 412 C1020 314 1240 360 1536 250 L1536 1024 L0 1024Z" fill="#f4f8ff" opacity=".9"/>
  <g opacity=".45" stroke="#dbe7f7" stroke-width="1">
    <path d="M0 562H1536M0 632H1536M0 702H1536M0 772H1536"/>
    <path d="M92 0V1024M184 0V1024M276 0V1024M368 0V1024M460 0V1024M552 0V1024M644 0V1024M736 0V1024M828 0V1024M920 0V1024M1012 0V1024M1104 0V1024M1196 0V1024M1288 0V1024M1380 0V1024M1472 0V1024"/>
  </g>
  <ellipse cx="906" cy="842" rx="560" ry="92" fill="#dfe9fb"/>
  <ellipse cx="906" cy="838" rx="525" ry="64" fill="#f8fbff" stroke="#8db4ff" stroke-width="6"/>
  <ellipse cx="906" cy="838" rx="500" ry="48" fill="#eef4ff"/>
  <circle cx="1090" cy="238" r="220" fill="#e9f1ff" opacity=".75"/>
  <rect x="1308" y="124" width="130" height="210" fill="url(#dots)" opacity=".75"/>

  <g filter="url(#softShadow)" font-family="Inter, Arial, sans-serif" font-weight="800">
    <g transform="translate(80 132)">
      <rect width="210" height="70" rx="14" fill="#fff"/>
      <rect x="19" y="18" width="36" height="36" rx="8" fill="#eef4ff"/>
      <path d="M37 28v18m-9-9h18M28 46h18a5 5 0 0 0 5-5V30a5 5 0 0 0-5-5H28a5 5 0 0 0-5 5v11a5 5 0 0 0 5 5Z" stroke="#2563eb" stroke-width="4" fill="none"/>
      <text x="70" y="42" font-size="18" fill="#111827">School Website</text>
    </g>
    <g transform="translate(60 314)">
      <rect width="188" height="74" rx="14" fill="#fff"/>
      <rect x="18" y="19" width="36" height="36" rx="8" fill="#f3e8ff"/>
      <path d="M30 27h14l8 8v14H30zM44 27v8h8M34 40h12M34 46h12" stroke="#8b5cf6" stroke-width="3" fill="none"/>
      <text x="70" y="44" font-size="18" fill="#111827">News Portal</text>
    </g>
    <g transform="translate(40 544)">
      <rect width="194" height="72" rx="14" fill="#fff"/>
      <rect x="18" y="18" width="36" height="36" rx="8" fill="#fff1e7"/>
      <path d="M28 33h18v10a9 9 0 0 1-18 0zm18 3h7a6 6 0 0 1 0 12h-5M27 53h22" stroke="#f97316" stroke-width="3" fill="none"/>
      <text x="70" y="44" font-size="18" fill="#111827">Cafe Website</text>
    </g>
    <g transform="translate(1220 134)">
      <rect width="204" height="74" rx="14" fill="#fff"/>
      <rect x="18" y="18" width="38" height="38" rx="8" fill="#f3e8ff"/>
      <path d="M28 31h18m-18 8h18m-16-16v8m14-8v8M27 29h20v22H27z" stroke="#8b5cf6" stroke-width="4" fill="none"/>
      <text x="70" y="45" font-size="18" fill="#111827">Hotel Booking</text>
    </g>
    <g transform="translate(1306 388)">
      <rect width="206" height="70" rx="14" fill="#fff"/>
      <rect x="18" y="18" width="36" height="36" rx="8" fill="#eafff0"/>
      <path d="M30 34h16l3 18H27zm5 0v-5a4 4 0 0 1 8 0v5" stroke="#22c55e" stroke-width="4" fill="none"/>
      <text x="70" y="43" font-size="18" fill="#111827">Ecommerce Store</text>
    </g>
    <g transform="translate(1296 726)">
      <rect width="196" height="72" rx="14" fill="#fff"/>
      <rect x="18" y="18" width="36" height="36" rx="8" fill="#eef4ff"/>
      <path d="M31 26h12a4 4 0 0 1 4 4v20a4 4 0 0 1-4 4H31a4 4 0 0 1-4-4V30a4 4 0 0 1 4-4zm4 23h4" stroke="#2563eb" stroke-width="4" fill="none"/>
      <text x="70" y="44" font-size="18" fill="#111827">Mobile App UI</text>
    </g>
  </g>

  <circle cx="326" cy="326" r="44" fill="url(#sphere)" filter="url(#softShadow)"/>
  <circle cx="100" cy="790" r="38" fill="url(#metal)" filter="url(#softShadow)"/>
  <g transform="translate(1322 538)" filter="url(#softShadow)">
    <path d="M48 0 96 27v56l-48 28L0 83V27z" fill="#2b6cff"/>
    <path d="M48 0 96 27 48 56 0 27z" fill="#87aaff"/>
    <path d="M48 56 96 27v56l-48 28z" fill="#0d55e8"/>
  </g>

  <g filter="url(#shadow)">
    <g transform="translate(354 60) rotate(3 420 340)">
      <path d="M78 0h640c32 0 58 26 58 58v500H20V58C20 26 46 0 78 0z" fill="#0b1019"/>
      <path d="M78 32h638c13 0 24 11 24 24v458H56V56c0-13 10-24 22-24z" fill="#fff"/>
      <rect x="56" y="32" width="684" height="92" fill="#fff"/>
      <path d="M80 122h636" stroke="#e5eaf2" stroke-width="1"/>
      <g font-family="Inter, Arial, sans-serif">
        <path d="M90 58h16l4 24H86z" stroke="#2563eb" stroke-width="3" fill="none"/>
        <text x="116" y="78" font-size="18" font-weight="900" fill="#0f172a">Trendify.</text>
        <text x="370" y="72" font-size="11" font-weight="800" fill="#2563eb">Home</text>
        <text x="424" y="72" font-size="11" font-weight="700" fill="#111827">Shop</text>
        <text x="486" y="72" font-size="11" font-weight="700" fill="#111827">Categories</text>
        <text x="568" y="72" font-size="11" font-weight="700" fill="#111827">Offers</text>
        <text x="632" y="72" font-size="11" font-weight="700" fill="#111827">Blog</text>
        <text x="684" y="72" font-size="11" font-weight="700" fill="#111827">Contact</text>
        <path d="M365 92h38" stroke="#2563eb" stroke-width="2"/>
      </g>
      <g font-family="Inter, Arial, sans-serif">
        <text x="90" y="186" font-size="32" font-weight="900" fill="#0f172a">Elevate Your Style</text>
        <text x="90" y="226" font-size="32" font-weight="900" fill="#0f172a">Shop the </text>
        <text x="238" y="226" font-size="32" font-weight="900" fill="#1d63ff">Latest Trends</text>
        <text x="90" y="272" font-size="14" fill="#334155">Discover premium quality products</text>
        <text x="90" y="292" font-size="14" fill="#334155">at the best prices, only at Trendify.</text>
        <rect x="90" y="326" width="76" height="38" rx="9" fill="url(#blue)"/>
        <text x="112" y="350" font-size="12" font-weight="800" fill="#fff">Shop Now</text>
        <rect x="182" y="326" width="126" height="38" rx="9" fill="#fff" stroke="#cbd5e1"/>
        <text x="203" y="350" font-size="12" font-weight="800" fill="#1f2937">Explore Categories</text>
      </g>
      <g transform="translate(502 158)">
        <rect x="0" y="150" width="340" height="95" fill="#f6f8fb"/>
        <ellipse cx="172" cy="244" rx="180" ry="16" fill="#dfe5ee"/>
        <path d="M132 52c0-34 16-54 36-54s36 20 36 54v82h-72z" fill="none" stroke="#b8916c" stroke-width="8"/>
        <path d="M74 98h196l22 130H50z" fill="#caa37d"/>
        <path d="M88 108h168l14 106H70z" fill="#d6b28c"/>
        <rect x="146" y="122" width="34" height="38" rx="4" fill="#bd936b"/>
        <path d="M130 182c46-6 93 0 140 16l-15 31H110z" fill="#f9fafb"/>
        <path d="M160 168c28 12 55 16 86 16" stroke="#a7754d" stroke-width="7" fill="none"/>
        <ellipse cx="76" cy="188" rx="58" ry="20" fill="#161b22"/>
        <rect x="47" y="168" width="52" height="28" rx="6" fill="#101827"/>
        <rect x="107" y="168" width="52" height="28" rx="6" fill="#101827"/>
        <path d="M105 182h10" stroke="#101827" stroke-width="5"/>
        <path d="M308 154c32 16 48 48 26 86-26-18-38-46-26-86z" fill="#2f7d3b"/>
        <path d="M346 154c28 24 32 58-6 88-16-32-12-62 6-88z" fill="#3b9a49"/>
        <rect x="318" y="174" width="42" height="68" rx="12" fill="#111827"/>
        <circle cx="339" cy="207" r="17" fill="#0b1220" stroke="#15c75b" stroke-width="2"/>
      </g>
      <g transform="translate(616 160)" font-family="Inter, Arial, sans-serif">
        <rect width="110" height="92" rx="11" fill="url(#blue)"/>
        <text x="15" y="28" font-size="13" font-weight="700" fill="#fff">New Arrivals</text>
        <text x="15" y="52" font-size="16" font-weight="900" fill="#fff">Flat </text>
        <text x="56" y="52" font-size="28" font-weight="900" fill="#fff">40%</text>
        <text x="15" y="71" font-size="13" font-weight="800" fill="#fff">Shop Now →</text>
      </g>
      <g transform="translate(56 450)" font-family="Inter, Arial, sans-serif" fill="#0f172a">
        <path d="M0 0h684" stroke="#e2e8f0"/>
        <g transform="translate(24 22)"><path d="M0 12h20" stroke="#2563eb" stroke-width="3"/><text x="32" y="10" font-size="12" font-weight="900">Free Shipping</text><text x="32" y="27" font-size="10" fill="#64748b">On orders above ₹999</text></g>
        <g transform="translate(180 22)"><circle cx="8" cy="12" r="10" stroke="#2563eb" stroke-width="3" fill="none"/><text x="32" y="10" font-size="12" font-weight="900">Secure Payment</text><text x="32" y="27" font-size="10" fill="#64748b">100% secure checkout</text></g>
        <g transform="translate(360 22)"><path d="M0 14a14 14 0 1 0 4-10" stroke="#2563eb" stroke-width="3" fill="none"/><text x="32" y="10" font-size="12" font-weight="900">Easy Returns</text><text x="32" y="27" font-size="10" fill="#64748b">Hassle free returns</text></g>
        <g transform="translate(520 22)"><circle cx="10" cy="12" r="10" stroke="#2563eb" stroke-width="3" fill="none"/><text x="32" y="10" font-size="12" font-weight="900">24/7 Support</text><text x="32" y="27" font-size="10" fill="#64748b">We're always here</text></g>
      </g>
      <g transform="translate(78 545)" font-family="Inter, Arial, sans-serif">
        <text x="0" y="0" font-size="18" font-weight="900" fill="#0f172a">Shop By Categories</text>
        <g transform="translate(0 32)"><circle cx="28" cy="28" r="28" fill="#eef2f7"/><rect x="22" y="14" width="12" height="32" rx="5" fill="#0f172a"/><text x="18" y="76" font-size="10">Men</text></g>
        <g transform="translate(90 32)"><circle cx="28" cy="28" r="28" fill="#eef2f7"/><rect x="22" y="12" width="13" height="35" rx="6" fill="#9ca3af"/><text x="10" y="76" font-size="10">Women</text></g>
        <g transform="translate(180 32)"><circle cx="28" cy="28" r="28" fill="#eef2f7"/><path d="M12 38h34l-8-15-24 8z" fill="#d7b08a"/><text x="15" y="76" font-size="10">Shoes</text></g>
        <g transform="translate(270 32)"><circle cx="28" cy="28" r="28" fill="#eef2f7"/><path d="M16 24h25l8 28H10z" fill="#b7a38e"/><text x="15" y="76" font-size="10">Bags</text></g>
        <g transform="translate(360 32)"><circle cx="28" cy="28" r="28" fill="#eef2f7"/><rect x="20" y="14" width="18" height="38" rx="5" fill="#111827"/><text x="6" y="76" font-size="10">Watches</text></g>
        <g transform="translate(450 32)"><circle cx="28" cy="28" r="28" fill="#eef2f7"/><circle cx="20" cy="31" r="12" fill="none" stroke="#111827" stroke-width="3"/><circle cx="38" cy="31" r="12" fill="none" stroke="#111827" stroke-width="3"/><text x="1" y="76" font-size="10">Accessories</text></g>
        <g transform="translate(540 32)"><circle cx="28" cy="28" r="28" fill="#eef2f7"/><rect x="20" y="14" width="16" height="36" rx="4" fill="#f0a979"/><text x="10" y="76" font-size="10">Beauty</text></g>
      </g>
    </g>
    <path d="M286 650h760c38 0 68 28 78 62l38 132H170l52-120c16-38 28-74 64-74z" fill="#d7dde7"/>
    <path d="M320 674h676c30 0 58 18 68 48l30 84H222l36-86c12-30 34-46 62-46z" fill="#eef2f7"/>
    <path d="M416 766h332l-28 48H370z" fill="#cbd5e1" stroke="#94a3b8"/>
    <g stroke="#111827" stroke-width="2" opacity=".8">
      <path d="M306 696h460M296 720h560M282 746h640"/>
      <path d="M330 680l-28 76M385 680l-20 76M440 680l-12 76M495 680l-4 76M550 680l4 76M605 680l12 76M660 680l20 76M715 680l28 76"/>
    </g>
  </g>

  <g transform="translate(1032 302) rotate(4)" filter="url(#shadow)">
    <rect x="0" y="0" width="210" height="430" rx="34" fill="#111827"/>
    <rect x="13" y="16" width="184" height="398" rx="28" fill="#fff"/>
    <rect x="67" y="18" width="70" height="16" rx="8" fill="#111827"/>
    <g font-family="Inter, Arial, sans-serif">
      <text x="35" y="64" font-size="15" font-weight="900" fill="#111827">Trendify.</text>
      <text x="164" y="64" font-size="22" font-weight="900" fill="#111827">≡</text>
      <rect x="13" y="86" width="184" height="154" fill="#f5efe8"/>
      <text x="28" y="128" font-size="22" font-weight="900" fill="#111827">Big Deals</text>
      <text x="28" y="154" font-size="22" font-weight="900" fill="#111827">On Top Brands</text>
      <text x="28" y="176" font-size="12" fill="#111827">Up to 50% Off</text>
      <rect x="28" y="194" width="62" height="28" rx="7" fill="#111827"/>
      <text x="42" y="212" font-size="10" font-weight="800" fill="#fff">Shop Now</text>
      <circle cx="138" cy="176" r="42" fill="#111827"/>
      <circle cx="138" cy="176" r="28" fill="#2d333d"/>
      <rect x="92" y="214" width="78" height="16" rx="7" fill="#d6c7b8"/>
      <text x="22" y="270" font-size="15" font-weight="900" fill="#0f172a">Categories</text>
      <text x="160" y="270" font-size="10" fill="#2563eb">View All</text>
      <g transform="translate(20 292)"><circle cx="20" cy="18" r="18" fill="#eef2f7"/><rect x="16" y="8" width="8" height="22" fill="#111827"/><text x="11" y="54" font-size="9">Men</text></g>
      <g transform="translate(70 292)"><circle cx="20" cy="18" r="18" fill="#eef2f7"/><path d="M8 24h24l-6-11-17 6z" fill="#d7b08a"/><text x="7" y="54" font-size="9">Shoes</text></g>
      <g transform="translate(120 292)"><circle cx="20" cy="18" r="18" fill="#eef2f7"/><path d="M10 14h18l6 22H6z" fill="#b7a38e"/><text x="10" y="54" font-size="9">Bags</text></g>
    </g>
  </g>
</svg>
